<svg width="42" height="40" viewBox="0 0 42 40" fill="none" xmlns="http://www.w3.org/2000/svg">
<g id="shopping-bag">
<path id="Vector" d="M10.8614 3.33333L5.82422 10V33.3333C5.82422 34.2174 6.17802 35.0652 6.8078 35.6904C7.43757 36.3155 8.29173 36.6667 9.18237 36.6667H32.6894C33.58 36.6667 34.4342 36.3155 35.064 35.6904C35.6937 35.0652 36.0475 34.2174 36.0475 33.3333V10L31.0103 3.33333H10.8614Z" stroke="#4C4C4B" stroke-width="2" stroke-linecap="round" stroke-linejoin="round"/>
<path id="Vector_2" d="M5.82422 10H36.0475" stroke="#4C4C4B" stroke-width="2" stroke-linecap="round" stroke-linejoin="round"/>
<path id="Vector_3" d="M27.6513 16.6667C27.6513 18.4348 26.9437 20.1305 25.6842 21.3807C24.4246 22.631 22.7163 23.3333 20.935 23.3333C19.1538 23.3333 17.4455 22.631 16.1859 21.3807C14.9264 20.1305 14.2188 18.4348 14.2188 16.6667" stroke="#4C4C4B" stroke-width="2" stroke-linecap="round" stroke-linejoin="round"/>
</g>
</svg>
